<?xml version="1.0" encoding="utf-8"?>
<!-- Generator: Adobe Illustrator 25.3.0, SVG Export Plug-In . SVG Version: 6.00 Build 0)  -->
<svg version="1.1" id="Capa_1" xmlns="http://www.w3.org/2000/svg" xmlns:xlink="http://www.w3.org/1999/xlink" x="0px" y="0px"
	 viewBox="0 0 234.67 125.33" style="enable-background:new 0 0 234.67 125.33;" xml:space="preserve">
<g>
	<g>
		<path d="M89.94,7.01c-5.2,1.8-8.3,4.9-10.3,10.1c-4.4,11.6,4.6,23.2,17.1,22.2c6.5-0.5,11.1-3.7,13.6-9.2
			c4.6-10-0.3-20.6-10.9-23.6C94.83,5.31,94.63,5.31,89.94,7.01L89.94,7.01z M89.94,7.01"/>
		<path d="M128.13,6.51c-4.4,1.3-7.4,3.8-9.8,8.1c-1.9,3.3-2.2,5.2-1.9,9.9c0.8,10.8,7.8,16.5,19.3,15.8c12-0.7,21.7-10,25.1-24.1
			c1-3.7,1.5-6.9,1.2-7.2c-0.2-0.3-2.2,0.4-4.4,1.5c-4.5,2.4-6.3,2.1-14.9-2.1C136.73,5.51,133.03,5.01,128.13,6.51L128.13,6.51z
			 M128.13,6.51"/>
		<path d="M43.73,31.91c-16.9,5.4-31.6,20.2-31.5,31.6c0.1,5,3.8,10.3,17.3,24.4c7.5,8,13.7,14.7,13.7,15s-7,0.6-15.6,0.6
			c-15.6,0-18.5,0.5-21.1,3.9c-0.7,0.9-1.2,2.9-1.2,4.6c0,3.4,1.4,5.6,4.6,7.3c3,1.6,51.2,1.7,54.7,0.1c3.1-1.5,5-6,4.3-10.4
			c-0.3-1.9-5.6-12.3-11.8-23.2l-11.1-19.7l2.2-1.8c3.4-2.7,11.7-5,20.7-5.5c7.6-0.5,8.2-0.4,10.2,1.9c1.2,1.3,9,10.9,17.4,21.3
			c9.4,11.7,16.2,19.3,17.8,19.9c5.4,1.9,7.1,0.4,25-22l17.3-21.7l8.5,0.6c5.2,0.3,10.8,1.3,14.2,2.6c10.1,3.8,10.3,2.1-2.5,24.4
			c-6.3,10.9-11.6,21.3-11.9,23c-0.6,3.9,1.5,9.2,4.1,10.6c1.3,0.7,11.4,1.1,28.1,1.1c25.6,0,26,0,28.6-2.3c3.6-3,3.9-8.8,0.7-12
			c-2.1-2.1-3.4-2.2-19.2-2.7l-16.9-0.5l14-14.7c14.5-15.2,16.9-18.9,16.9-25.9c0-5.8-2.6-10.5-9.6-17.4c-11-11-24.1-16-39.5-15.3
			c-13.2,0.6-14.4,1.6-36.5,28.9c-15.1,18.8-18.9,22.8-19.9,21.7c-0.6-0.7-7.9-9.6-16-19.8c-18.8-23.5-20.9-25.7-27-28.6
			C65.83,28.61,53.73,28.61,43.73,31.91L43.73,31.91z M43.73,31.91"/>
	</g>
</g>
</svg>
