<svg xmlns="http://www.w3.org/2000/svg" version="1.1" xmlns:xlink="http://www.w3.org/1999/xlink" xmlns:svgjs="http://svgjs.dev/svgjs" width="1440" height="560" preserveAspectRatio="none" viewBox="0 0 1440 560"><g mask="url(&quot;#SvgjsMask1016&quot;)" fill="none"><path d="M1417.28 264.38L1468.7 264.38L1468.7 284.81L1417.28 284.81z" fill="rgba(213, 191, 21, 1)"></path><path d="M1290.8 285.66L1299.86 285.66L1299.86 330.46L1290.8 330.46z" stroke="rgba(7, 111, 237, 1)"></path><path d="M1285.43 466.64 a8.05 8.05 0 1 0 16.1 0 a8.05 8.05 0 1 0 -16.1 0z" stroke="rgba(7, 111, 237, 1)"></path><path d="M429.73 331.33L466.63 331.33L466.63 380.68L429.73 380.68z" fill="rgba(251, 55, 94, 1)"></path><path d="M211.77 222.85L258.85 222.85L258.85 255.3L211.77 255.3z" stroke="rgba(25, 151, 235, 1)"></path><path d="M221.12 433.92L243.81 433.92L243.81 456.61L221.12 456.61z" stroke="rgba(7, 111, 237, 1)"></path><path d="M689.04 534.96a12.42 12.42 0 1 0 1.24 24.81z" fill="rgba(25, 151, 235, 1)"></path><path d="M1311.47 521.44a51.56 51.56 0 1 0-58.33-85.04z" stroke="rgba(25, 151, 235, 1)"></path><path d="M218.78 259.08L257.97 259.08L257.97 278.46L218.78 278.46z" stroke="rgba(7, 111, 237, 1)"></path><path d="M956.29 490.35L964.19 490.35L964.19 545.73L956.29 545.73z" stroke="rgba(100, 115, 120, 1)"></path><path d="M771.87 180.45L814.65 180.45L814.65 223.23L771.87 223.23z" fill="rgba(7, 111, 237, 1)"></path><path d="M1124.8 195.76L1138.31 195.76L1138.31 232.32L1124.8 232.32z" stroke="rgba(251, 55, 94, 1)"></path><path d="M632.64 394.28L678.15 394.28L678.15 397.01L632.64 397.01z" fill="rgba(213, 191, 21, 1)"></path><path d="M750.78 69.66L766.44 69.66L766.44 115.3L750.78 115.3z" fill="rgba(213, 191, 21, 1)"></path><path d="M78.83 306.15L128.36 306.15L128.36 321.1L78.83 321.1z" stroke="rgba(213, 191, 21, 1)"></path><path d="M561.96 220.39a43.97 43.97 0 1 0 81.48 33.08z" fill="rgba(100, 115, 120, 1)"></path><path d="M1386.65 89.57L1441.86 89.57L1441.86 114.96L1386.65 114.96z" stroke="rgba(251, 55, 94, 1)"></path><path d="M402.24 274.98 a34.96 34.96 0 1 0 69.92 0 a34.96 34.96 0 1 0 -69.92 0z" fill="rgba(25, 151, 235, 1)"></path><path d="M1174.95 257.21L1223.33 257.21L1223.33 305.59L1174.95 305.59z" stroke="rgba(100, 115, 120, 1)"></path><path d="M389.07 359.16 a34.8 34.8 0 1 0 69.6 0 a34.8 34.8 0 1 0 -69.6 0z" stroke="rgba(25, 151, 235, 1)"></path><path d="M120.11 456.74L165.58 456.74L165.58 497.9L120.11 497.9z" fill="rgba(100, 115, 120, 1)"></path><path d="M949.85 456.56 a38.5 38.5 0 1 0 77 0 a38.5 38.5 0 1 0 -77 0z" fill="rgba(25, 151, 235, 1)"></path><path d="M885.81 223.12L904.48 223.12L904.48 241.79L885.81 241.79z" stroke="rgba(67, 88, 117, 1)"></path><path d="M827.43 104.82L876.28 104.82L876.28 153.67L827.43 153.67z" stroke="rgba(67, 88, 117, 1)"></path><path d="M964.54 259.06L980.58 259.06L980.58 275.1L964.54 275.1z" stroke="rgba(251, 55, 94, 1)"></path><path d="M760.94 369.57L797.26 369.57L797.26 405.89L760.94 405.89z" fill="rgba(213, 191, 21, 1)"></path><path d="M145.01 51.82L184.45 51.82L184.45 105.96L145.01 105.96z" stroke="rgba(7, 111, 237, 1)"></path><path d="M322.35 440.52a10.16 10.16 0 1 0-7.96 18.69z" fill="rgba(213, 191, 21, 1)"></path><path d="M496.59 477.37L516.98 477.37L516.98 497.76L496.59 497.76z" stroke="rgba(100, 115, 120, 1)"></path><path d="M1321.57 108.41a51.97 51.97 0 1 0 85.04-59.76z" fill="rgba(7, 111, 237, 1)"></path><path d="M155.49 3.88 a53.44 53.44 0 1 0 106.88 0 a53.44 53.44 0 1 0 -106.88 0z" fill="rgba(7, 111, 237, 1)"></path><path d="M408.11 166 a17.93 17.93 0 1 0 35.86 0 a17.93 17.93 0 1 0 -35.86 0z" stroke="rgba(25, 151, 235, 1)"></path><path d="M160.5 270.12L192.47 270.12L192.47 280.3L160.5 280.3z" stroke="rgba(213, 191, 21, 1)"></path></g><defs><mask id="SvgjsMask1016"><rect width="1440" height="560" fill="#ffffff"></rect></mask></defs></svg>