<svg xmlns="http://www.w3.org/2000/svg" version="1.1" xmlns:xlink="http://www.w3.org/1999/xlink" xmlns:svgjs="http://svgjs.dev/svgjs" viewBox="0 0 800 800" opacity="0.7"><defs><linearGradient x1="50%" y1="0%" x2="50%" y2="100%" id="uundulate-grad"><stop stop-color="hsl(206, 75%, 49%)" stop-opacity="1" offset="45%"></stop><stop stop-color="hsl(331, 90%, 56%)" stop-opacity="1" offset="100%"></stop></linearGradient></defs><g stroke-width="1" stroke="url(#uundulate-grad)" fill="none"><path d="M754.0146119384867 239.5235265408968C780.0189066218679 373.82523678396853 596.6468619806808 540.9626977246106 452.78034729034505 652.6180820202073C308.9138326000093 764.2734663158042 125.62447838651235 832.7912861270217 63.45534142487452 775.4693711597611C1.2862044632366292 718.1474561925002 99.26340833589171 537.3686189911676 154.36848987448343 377.47289017735557C209.4735714130752 217.57716136354338 203.03345738011478 36.70932361105827 327.9597328101155 7.969872853462562C452.8860082401162 -20.769577904133143 728.0103172551057 105.22181629782494 754.0146119384867 239.5235265408968C780.0189066218679 373.82523678396853 596.6468619806808 540.9626977246106 452.78034729034505 652.6180820202073 "></path><path d="M738.6226722889874 246.5007446146111C763.4963454643953 374.9632500645059 588.0969984163033 534.8338648772939 450.4855495820691 641.6346672469953C312.874100747835 748.4354696166965 137.5538488914466 813.9742537839479 78.0877178846626 759.1445959891769C18.621586877878542 704.3149381944057 112.3389123212877 531.3960504366094 165.04812074950593 378.4523098320934C217.75732917772416 225.50856922757748 211.59722010271844 52.50455050780914 331.0919183401104 25.014641087500195C450.58661657750247 -2.475268332808696 713.7489991135792 118.0382391647164 738.6226722889874 246.5007446146111C763.4963454643953 374.9632500645059 588.0969984163033 534.8338648772939 450.4855495820691 641.6346672469953 "></path><path d="M723.2307326394879 253.47802372348178C746.9737843069229 376.10132438019957 579.5471348519259 528.7050930651336 448.19075187379326 630.6513135089393C316.83436889566065 732.5975339527452 149.4832193963809 795.1572824760308 92.72009434445062 742.8198818537494C35.9569692925204 690.4824812314675 125.41441630668373 525.4235429172074 175.72775162452837 379.43179052198764C226.041086942373 233.44003812676783 220.1609828253222 68.29983843971627 334.2241038701054 42.05947035669408C448.2872249148887 15.819102273671945 699.487680972053 130.8547230667641 723.2307326394879 253.47802372348178C746.9737843069229 376.10132438019957 579.5471348519259 528.7050930651336 448.19075187379326 630.6513135089393 "></path><path d="M707.8387929899884 260.4552417971962C730.4512231494502 377.23933766073696 570.9972712875485 522.576260217817 445.8959541655174 619.6678987357271C320.7946370434863 716.7595372536374 161.41258990131513 776.340250132957 107.35247080423869 726.4951066831651C53.29235170716231 676.6499632333731 138.48992029207977 519.450974362649 186.40738249955086 380.4112101767255C234.32484470702195 241.37144599080193 228.72474554792586 84.09506533646709 337.3562894001004 59.10423859073171C445.987833252275 34.113411844996335 685.2263628305267 143.6711459336555 707.8387929899884 260.4552417971962C730.4512231494502 377.23933766073696 570.9972712875485 522.576260217817 445.8959541655174 619.6678987357271 "></path><path d="M692.446853340489 267.43245987091063C713.9286619919777 378.37735094127424 562.4474077231711 516.4474273705003 443.6011564572416 608.6844839625151C324.754905191312 700.9215405545299 173.34196040624937 757.5232177898833 121.98484726402677 710.1703315125811C70.62773412180417 662.8174452352787 151.56542427747576 513.478405808091 197.0870133745733 381.39062983146346C242.60860247167085 249.30285385483603 237.28850827052958 99.89029223321796 340.48847493009544 76.14900682476934C443.68844158966124 52.407721416320726 670.9650446890003 156.48756880054697 692.446853340489 267.43245987091063C713.9286619919777 378.37735094127424 562.4474077231711 516.4474273705003 443.6011564572416 608.6844839625151 "></path><path d="M677.0549136909896 274.4097389797813C697.4061008345053 379.5154252569679 553.8975441587936 510.31865555833997 441.30635874896564 597.7011302244591C328.71517333913766 685.0836048905784 185.2713309111836 738.706246481966 136.61722372381485 693.8456173771532C87.96311653644608 648.9849882723405 164.64092826287174 507.50589828868897 207.76664424959574 382.3701105213577C250.89236023631975 257.23432275402644 245.8522709931333 115.68558016512509 343.62066046009033 93.19383609396323C441.3890499270475 70.70209202280137 656.7037265474739 169.30405270259467 677.0549136909896 274.4097389797813C697.4061008345053 379.5154252569679 553.8975441587936 510.31865555833997 441.30635874896564 597.7011302244591 "></path><path d="M661.6629740414902 281.38695705349573C680.8835396770327 380.6534385375053 545.3476805944163 504.18982271102334 439.0115610406898 586.7177154512472C332.67544148696334 669.2456081914708 197.20070141611785 719.8892141388924 151.24960018360292 677.5208422065692C105.29849895108794 635.1524702742461 177.71643224826778 501.5333297341308 218.44627512461824 383.34953017609564C259.17611800096864 265.1657306180606 254.416033715737 131.48080706187596 346.75284599008535 110.23860432800086C439.08965826443375 88.99640159412581 642.4424084059476 182.12047556948613 661.6629740414902 281.38695705349573C680.8835396770327 380.6534385375053 545.3476805944163 504.18982271102334 439.0115610406898 586.7177154512472 "></path><path d="M646.2710191332017 288.3641751272101C664.3609632607712 381.79145181804256 536.7978017712497 498.0609898637067 436.7167480736248 575.7343006780349C336.63569437599995 653.4076114923631 209.13005666226303 701.0721817958187 165.88196138460188 661.1960670359852C122.63386610694079 621.3199522761515 190.79192097487476 495.5607611795724 229.12589074085162 384.3289498308336C267.4598605068285 273.0971384820947 262.97978117955165 147.27603395862678 349.8850162612913 127.2833725620385C436.79025134303083 107.2907111654502 628.1810750056322 194.93689843637753 646.2710191332017 288.3641751272101C664.3609632607712 381.79145181804256 536.7978017712497 498.0609898637067 436.7167480736248 575.7343006780349 "></path><path d="M630.8790794837023 295.3414542360808C647.8384021032987 382.9295261337363 528.2479382068723 491.93221805154633 434.42195036534895 564.750946939979C340.5959625238256 637.5696758284117 221.05942716719727 682.2552104879014 180.51433784438996 644.8713529005574C139.96924852158264 607.4874953132135 203.86742496027074 489.5882536601705 239.80552161587406 385.3084305207278C275.74361827147743 281.02860738128504 271.54354390215536 163.0713218905339 353.0172017912863 144.32820183123238C434.4908596804171 125.58508177193085 613.9197568641059 207.75338233842524 630.8790794837023 295.3414542360808C647.8384021032987 382.9295261337363 528.2479382068723 491.93221805154633 434.42195036534895 564.750946939979 "></path><path d="M615.4871398342029 302.3186570510061C631.3158409458262 384.06752415548453 519.6980746424949 485.80336994544064 432.1271526570731 553.7675169079778C344.5562306716514 621.7316638705149 232.9887976721315 663.4381628860388 195.14671430417803 628.5465624711844C157.30463093622456 593.6549620563299 216.94292894566678 483.61566984682304 250.48515249089655 386.2878349166766C284.02737603612627 288.9599999865301 280.1073066247591 178.86653352849572 356.1493873212812 161.37295480648095C432.19146801780334 143.87937608446617 599.6584387225796 220.56978994652764 615.4871398342029 302.3186570510061C631.3158409458262 384.06752415548453 519.6980746424949 485.80336994544064 432.1271526570731 553.7675169079778 "></path><path d="M600.0952307022815 309.29590564229864C614.7933103059318 385.20556795360005 511.1482415956956 479.67456761570213 429.8323854663754 542.7841326523437C348.5165293370552 605.8936976889854 244.91819869464388 644.6211610605433 209.77912128154423 612.2218178181784C174.64004386844454 579.8224745758137 230.0184634486409 477.643131809843 261.1648138834971 387.2672850889927C292.31116431835335 296.89143836814236 288.67109986494086 194.66179094282472 359.28160336885435 178.4177535580967C429.8921068727677 162.1737161733687 585.3971510986313 233.38624333099722 600.0952307022815 309.29590564229864C614.7933103059318 385.20556795360005 511.1482415956956 479.67456761570213 429.8323854663754 542.7841326523437 "></path><path d="M584.7032910527821 316.2731542335912C598.2707491484592 386.34361175171557 502.59837803131813 473.5457652859636 427.53758775809956 531.8007483967097C352.4767974848809 590.0557315074559 256.8475691995781 625.8041592350476 224.4114977413323 595.8970731651725C191.97542628308645 565.9899870952972 243.09396743403693 471.67059377286296 271.84444475851956 388.2467352613087C300.5949220830022 304.82287674975464 297.23486258754457 210.45704835715372 362.41378889884936 195.46255230971246C427.592715210154 180.46805626227126 571.1358329571051 246.20269671546674 584.7032910527821 316.2731542335912C598.2707491484592 386.34361175171557 502.59837803131813 473.5457652859636 427.53758775809956 531.8007483967097 "></path><path d="M569.3113514032827 323.2504028248837C581.7481879909867 387.4816555498311 494.0485144669408 467.416962956225 425.2427900498236 520.8173641410758C356.43706563270655 574.2177653259264 268.77693970451236 606.9871574095521 239.04387420112033 579.5723285121666C209.3108086977283 552.157499614781 256.1694714194329 465.6980557358828 282.524075633542 389.2261854336248C308.87867984765114 312.75431513136687 305.7986253101483 226.25230577148267 365.54597442884426 212.50735106132822C425.29332354754024 198.76239635117378 556.8745148155787 259.0191500999363 569.3113514032827 323.2504028248837C581.7481879909867 387.4816555498311 494.0485144669408 467.416962956225 425.2427900498236 520.8173641410758 "></path><path d="M553.9194117537833 330.2276208985981C565.2256268335142 388.6196688303685 485.4986509025633 461.2881301089085 422.9479923415478 509.8339493678636C360.3973337805322 558.3797686268188 280.7063102094466 588.1701250664785 253.6762506609084 563.2475533415825C226.64619111237022 538.3249816166865 269.24497540482895 459.7254871813245 293.2037065085645 390.20560508836274C317.16243761230004 320.68572299540097 314.362388032752 242.04753266823354 368.6781599588393 229.55211929536586C422.9939318849265 217.05670592249817 542.6131966740525 271.8355729668278 553.9194117537833 330.2276208985981C565.2256268335142 388.6196688303685 485.4986509025633 461.2881301089085 422.9479923415478 509.8339493678636 "></path><path d="M538.5274263279166 337.2048847486797C548.7030198996745 389.757727887273 476.9487415618187 455.15934303795905 420.65314885690464 498.8505803710186C364.3575561519907 542.5418177040783 292.6356349380137 569.3531384997721 268.3085813443293 546.9228239473657C243.9815277506449 524.4925093949594 282.32043361385774 453.75296440313355 303.88329160721975 391.1850705194679C325.44614960058175 328.61717663580225 322.9261049789885 257.8428053413516 371.81029971246704 246.59693330577068C420.69449444594557 235.35106127018975 528.3518327561588 284.65204161008637 538.5274263279166 337.2048847486797C548.7030198996745 389.757727887273 476.9487415618187 455.15934303795905 420.65314885690464 498.8505803710186 "></path><path d="M523.1355324547844 344.1821028223941C532.1805045185693 390.89574116781034 468.3989237738085 449.0305101906424 418.358396924996 487.86716559780643C368.31787007618357 526.7038210049707 304.56505121931514 550.5361061566985 282.94100358048456 530.5980487767816C261.316955941654 510.6599913968648 295.395983375621 447.78039584857527 314.56296825860943 392.16449017420587C333.72995314159783 336.5485844998364 331.4899134779594 273.6380322381025 374.94253101882924 263.6417015398083C418.395148559699 253.64537084151414 514.0905603909997 297.46846447697783 523.1355324547844 344.1821028223941C532.1805045185693 390.89574116781034 468.3989237738085 449.0305101906424 418.358396924996 487.86716559780643 "></path><path d="M507.74359280528506 351.15935141368664C515.6579433610966 392.03378496592586 459.84906020943106 442.9017078609039 416.06359921672015 476.8837813421725C372.2781382240093 510.86585482344105 316.4944217242494 531.719104331203 297.5733800402726 514.2733041237758C278.65233835629584 496.8275039163485 308.47148736101695 441.8078578115951 325.24259913363187 393.1439403465219C342.01371090624673 344.48002288144863 340.05367620056313 289.4332896524315 378.0747165488242 280.68650029142407C416.09575689708527 271.9397109304167 499.8292422494734 310.2849178614474 507.74359280528506 351.15935141368664C515.6579433610966 392.03378496592586 459.84906020943106 442.9017078609039 416.06359921672015 476.8837813421725 "></path><path d="M492.3516378969965 358.13656948740106C499.13536694483514 393.17179824646325 451.29918138626454 436.7728750135873 413.76878624965525 465.9003665689603C376.2383911130459 495.0278581243334 328.42377697039456 512.9020719881293 312.2057412412716 497.9485289531917C295.9877055121487 482.9949859182541 321.54697608762393 435.83528925703695 335.92221474986525 394.1233600012598C350.29745341210656 352.4114307454828 348.6174236643778 305.2285165491823 381.20688682003015 297.7312685254617C413.79634997568246 290.2340205017411 485.567908849158 323.10134072833887 492.3516378969965 358.13656948740106C499.13536694483514 393.17179824646325 451.29918138626454 436.7728750135873 413.76878624965525 465.9003665689603 "></path><path d="M476.95971350628616 365.1138180786936C482.61282104615157 394.3098420445788 442.7493330806762 430.6440726838488 411.4740038001684 454.91698231332634C380.19867451966064 479.1898919428039 340.35316273411786 494.08507016263377 326.83813295984874 481.6237843001858C313.3231031855796 469.1624984377378 334.622495331809 429.8627512200568 346.60186088367675 395.1028101735759C358.5812264355445 360.342869127095 357.18120164577056 321.0237739635113 384.33908760881417 314.77606727707746C411.4969735718578 308.5283605906436 471.30660596642076 335.9177941128084 476.95971350628616 365.1138180786936C482.61282104615157 394.3098420445788 442.7493330806762 430.6440726838488 411.4740038001684 454.91698231332634 "></path><path d="M461.5677585979977 372.09105141119704C466.0902446298901 395.44787058390517 434.19945425750973 424.5152550953212 409.17919083310346 443.9335827989032C384.15892740869725 463.35191050248534 352.28251798026304 475.2680530783492 341.47049416084775 465.2990243883908C330.65847034143246 455.3299956984324 347.69798405841595 423.89019792428763 357.2814764999102 396.08224508710293C366.8649689414044 368.2742922499182 365.74494910958515 336.81901611905124 387.47125788002006 331.82085076990415C409.197566650455 326.82268542075707 457.0452725661053 348.7342322384889 461.5677585979977 372.09105141119704C466.0902446298901 395.44787058390517 434.19945425750973 424.5152550953212 409.17919083310346 443.9335827989032 "></path><path d="M446.17581894849826 379.06828474370053C449.56768347241757 396.5858991232316 425.64959069313227 418.38643750679364 406.8843931248276 432.95018328448015C388.119195556523 447.5139290621667 364.2118884851973 456.4510359940646 356.1028706206358 448.97426447659586C347.9938527560743 441.49749295912704 360.77348804381194 417.9176446285185 367.9611073749326 397.0616800006299C375.1487267060533 376.2057153727414 374.30871183218886 352.6142582745912 390.6034434100151 348.86563426273085C406.89817498784123 345.1170102508705 442.783954424579 361.55067036416943 446.17581894849826 379.06828474370053C449.56768347241757 396.5858991232316 425.64959069313227 418.38643750679364 406.8843931248276 432.95018328448015 "></path><path d="M430.78387929899884 386.0455333349931C433.04512231494505 397.72394292134715 417.09972712875486 412.25763517705514 404.58959541655173 421.96679902884614C392.07946370434865 431.6759628806372 376.1412589901315 437.63403416856914 370.73524708042385 432.6495198235899C365.32923517071623 427.66500547861074 373.848992029208 411.9451065915384 378.64073824995506 398.041130172946C383.4324844707022 384.1371537543536 382.8724745547926 368.4095156889201 393.73562894001003 365.9104330143466C404.5987833252275 363.4113503397731 428.52263628305263 374.367123748639 430.78387929899884 386.0455333349931C433.04512231494505 397.72394292134715 417.09972712875486 412.25763517705514 404.58959541655173 421.96679902884614 "></path><path d="M415.3919396494994 393.0227666674965C416.5225611574725 398.86197146067354 408.5498635643774 406.12881758852757 402.2947977082759 410.98339951442307C396.0397318521743 415.8379814403186 388.07062949506576 418.81701708428454 385.3676235402119 416.32475991179496C382.6646175853581 413.83250273930537 386.92449601460396 405.97255329576916 389.32036912497756 399.02056508647297C391.7162422353511 392.06857687717684 391.4362372773963 384.20475784446006 396.86781447000504 382.9552165071733C402.29939166261374 381.70567516988655 414.2613181415263 387.1835618743195 415.3919396494994 393.0227666674965C416.5225611574725 398.86197146067354 408.5498635643774 406.12881758852757 402.2947977082759 410.98339951442307 "></path></g></svg>