<svg xmlns="http://www.w3.org/2000/svg" version="1.1" xmlns:xlink="http://www.w3.org/1999/xlink" xmlns:svgjs="http://svgjs.dev/svgjs" viewBox="0 0 800 800" opacity="0.31"><defs><linearGradient x1="50%" y1="0%" x2="50%" y2="100%" id="gggyrate-grad"><stop stop-color="hsl(206, 93%, 60%)" stop-opacity="1" offset="0%"></stop><stop stop-color="hsl(348, 96%, 60%)" stop-opacity="1" offset="100%"></stop></linearGradient></defs><g stroke-width="1.5" stroke="url(#gggyrate-grad)" fill="none"><path d="M362.27980449052916 -144.02658084332154C385.6210425875123 -157.50022377842566 414.37889637733144 -157.50022377842566 437.7201344743146 -144.02280882682237L852.2798358012128 95.32295409623475C875.6210738981961 108.79659703133882 890.0000007931058 133.7032219754857 890.0000007931058 160.6542798621931V639.3458057083076C890.0000007931058 666.2968635950149 875.6210738981961 691.2034885391618 852.2798358012128 704.6809034907651L437.7201344743146 944.0266664138221C414.37889637733144 957.5003093489261 385.6210425875123 957.5003093489261 362.27980449052916 944.022894397323L-52.279896836369176 704.6771314742659C-75.62113493335238 691.2034885391618 -90.00006182826195 666.2968635950149 -90.00006182826195 639.3458057083076V160.6542798621931C-90.00006182826195 133.7032219754857 -75.62113493335238 108.79659703133882 -52.279896836369176 95.31918207973564L362.27980449052916 -144.02658084332154Z " transform="rotate(150, 400, 400)" opacity="0.05"></path><path d="M364.1658127401238 -116.82528994812816C386.3399889322577 -129.62525073647703 413.65995003258604 -129.62525073647703 435.83412622471997 -116.8217065324539L829.6658424852735 110.55676824445038C851.8400186774074 123.35672903279925 865.4999992275716 147.01802272973873 865.4999992275716 172.62152772211084V627.3784772759194C865.4999992275716 652.9819822682916 851.8400186774074 676.6432759652312 829.6658424852735 689.4468201692541L435.83412622471997 916.8252949461582C413.65995003258604 929.6252557345072 386.3399889322577 929.6252557345072 364.1658127401238 916.8217115304842L-29.665903520429595 689.4432367535799C-51.840079712563636 676.6432759652312 -65.50006026272774 652.9819822682916 -65.50006026272774 627.3784772759194V172.62152772211084C-65.50006026272774 147.01802272973873 -51.840079712563636 123.35672903279925 -29.665903520429595 110.55318482877624L364.1658127401238 -116.82528994812816Z " transform="rotate(142.5, 400, 400)" opacity="0.10"></path><path d="M366.0518209897184 -89.62398379414566C387.05893527700323 -101.75026243573936 412.9410036878405 -101.75026243573936 433.94811797512534 -89.62058897929637L807.0518491693338 125.79059765145502C828.0589634566186 137.9168762930487 840.9999976620375 160.33283874278084 840.9999976620375 184.58879084081764V615.4111641023203C840.9999976620375 639.6671162003571 828.0589634566186 662.0830786500892 807.0518491693338 674.2127521065322L433.94811797512534 889.6239387372834C412.9410036878405 901.7502173788771 387.05893527700323 901.7502173788771 366.0518209897184 889.6205439224343L-7.0519102044900706 674.2093572916829C-28.05902449177495 662.0830786500892 -41.00005869719354 639.6671162003571 -41.00005869719354 615.4111641023203V184.58879084081764C-41.00005869719354 160.33283874278084 -28.05902449177495 137.9168762930487 -7.0519102044900706 125.78720283660579L366.0518209897184 -89.62398379414566Z " transform="rotate(135, 400, 400)" opacity="0.15"></path><path d="M367.93782923931303 -62.42261660500691C387.77788162174875 -73.87521309984541 412.222057343095 -73.87521309984541 432.0621097255307 -62.41941039098259L784.4378558533945 141.0244880936159C804.2779082358302 152.47708458845443 816.4999960965033 173.6477157909792 816.4999960965033 196.55611499468068V603.4439119638777C816.4999960965033 626.352311167579 804.2779082358302 647.5229423701039 784.4378558533945 658.9787450789665L432.0621097255307 862.4226435635651C412.222057343095 873.8752400584035 387.77788162174875 873.8752400584035 367.93782923931303 862.4194373495407L15.56208311144951 658.9755388649423C-4.277969270986262 647.5229423701039 -16.50005713165939 626.352311167579 -16.50005713165939 603.4439119638777V196.55611499468068C-16.50005713165939 173.6477157909792 -4.277969270986262 152.47708458845443 15.56208311144951 141.0212818795917L367.93782923931303 -62.42261660500691Z " transform="rotate(127.5, 400, 400)" opacity="0.20"></path><path d="M369.82383748890766 -35.22131045102441C388.49682796649427 -46.00022479910771 411.5031109983495 -46.00022479910771 430.1761014759361 -35.21829283782506L761.8238625374547 156.2583175006206C780.4968530150413 167.03723184870387 791.9999945309689 186.96253180402135 791.9999945309689 208.52337811338737V591.4765987902787C791.9999945309689 613.0374450996446 780.4968530150413 632.9627450549622 761.8238625374547 643.7446770162446L430.1761014759361 835.2212873546905C411.5031109983495 846.0002017027737 388.49682796649427 846.0002017027737 369.82383748890766 835.218269741491L38.176076427389035 643.7416594030454C19.503085949802482 632.9627450549622 7.999944433874816 613.0374450996446 7.999944433874816 591.4765987902787V208.52337811338737C7.999944433874816 186.96253180402135 19.503085949802482 167.03723184870387 38.176076427389035 156.2552998874213L369.82383748890766 -35.22131045102441Z " transform="rotate(120, 400, 400)" opacity="0.25"></path><path d="M371.70990677365853 -8.020004297041964C389.21583534639603 -18.125236498370015 410.7842256887602 -18.125236498370015 428.2901542614977 -8.01717528466753L739.2099302566714 171.49214690762528C756.7158588294088 181.5973791089533 767.500054000591 200.27734781706351 767.500054000591 220.4906412320941V579.5092856166797C767.500054000591 599.7225790317103 756.7158588294088 618.4025477398205 739.2099302566714 628.5106089535229L428.2901542614977 808.0199311458157C410.7842256887602 818.1251633471438 389.21583534639603 818.1251633471438 371.70990677365853 808.0171021334413L60.790130778484865 628.5077799411486C43.28420220574742 618.4025477398205 32.50000703456527 599.7225790317103 32.50000703456527 579.5092856166797V220.4906412320941C32.50000703456527 200.27734781706351 43.28420220574742 181.5973791089533 60.790130778484865 171.4893178952509L371.70990677365853 -8.020004297041964Z " transform="rotate(112.5, 400, 400)" opacity="0.30"></path><path d="M373.59591502325316 19.181362892096786C389.93478169114144 9.749812837523905 410.0652793440148 9.749812837523905 426.4041460119031 19.18400330364625L716.5959369407319 186.72603734978617C732.9348036086201 196.15758740435905 743.0000524350568 213.59222486526187 743.0000524350568 232.4579653859571V567.542033478237C743.0000524350568 586.4077739989323 732.9348036086201 603.842411459835 716.5959369407319 613.2766019259573L426.4041460119031 780.8186359720972C410.0652793440148 790.2501860266702 389.93478169114144 790.2501860266702 373.59591502325316 780.8159955605479L83.40412409442439 613.2739615144079C67.06525742653616 603.842411459835 57.00000860009948 586.4077739989323 57.00000860009948 567.542033478237V232.4579653859571C57.00000860009948 213.59222486526187 67.06525742653616 196.15758740435905 83.40412409442439 186.72339693823682L373.59591502325316 19.181362892096786Z " transform="rotate(105, 400, 400)" opacity="0.35"></path><path d="M375.4819232728478 46.38269956365741C390.65372803588684 37.62483165583973 409.3463329992694 37.62483165583973 424.51813776230847 46.385151374381905L693.9819436247923 201.95989727436898C709.1537483878313 210.71776518218667 718.5000508695226 226.9070713958821 718.5000508695226 244.42525902224202V555.5747508222163C718.5000508695226 573.0929384485761 709.1537483878313 589.2822446622716 693.9819436247923 598.0425643808136L424.51813776230847 753.6173102808008C409.3463329992694 762.3751781886184 390.65372803588684 762.3751781886184 375.4819232728478 753.6148584700763L106.01811741036397 598.0401125700893C90.84631264732485 589.2822446622716 81.50001016563363 573.0929384485761 81.50001016563363 555.5747508222163V244.42525902224202C81.50001016563363 226.9070713958821 90.84631264732485 210.71776518218667 106.01811741036397 201.9574454636446L375.4819232728478 46.38269956365741Z " transform="rotate(97.5, 400, 400)" opacity="0.40"></path><path d="M377.3679315224424 73.58403623521798C391.37267438063236 65.49985047415555 408.6273866545239 65.49985047415555 422.63212951271385 73.5862994451175L671.3679503088528 217.19375719895174C685.3726931670427 225.27794296001423 694.0000493039884 240.22191792650233 694.0000493039884 256.3925526585268V543.6074681661953C694.0000493039884 559.7781028982199 685.3726931670427 574.7220778647079 671.3679503088528 582.8085268356699L422.63212951271385 726.4159845895041C408.6273866545239 734.5001703505666 391.37267438063236 734.5001703505666 377.3679315224424 726.4137213796047L128.6321107263035 582.8062636257704C114.6273678681136 574.7220778647079 106.00001173116783 559.7781028982199 106.00001173116783 543.6074681661953V256.3925526585268C106.00001173116783 240.22191792650233 114.6273678681136 225.27794296001423 128.6321107263035 217.19149398905233L377.3679315224424 73.58403623521798Z " transform="rotate(90, 400, 400)" opacity="0.45"></path><path d="M379.25393977203714 100.7853729067786C392.0916207253779 93.37486929247135 407.90844030977837 93.37486929247135 420.7461212631192 100.78744751585316L648.7539569929132 232.42761712353456C661.591637946254 239.8381207378418 669.5000477384542 253.53676445712256 669.5000477384542 268.3598462948117V531.6401855101744C669.5000477384542 546.4632673478636 661.591637946254 560.1619110671444 648.7539569929132 567.5744892905261L420.7461212631192 699.2146588982075C407.90844030977837 706.6251625125147 392.0916207253779 706.6251625125147 379.25393977203714 699.212584289133L151.24610404224308 567.5724146814516C138.40842308890228 560.1619110671444 130.50001329670204 546.4632673478636 130.50001329670204 531.6401855101744V268.3598462948117C130.50001329670204 253.53676445712256 138.40842308890228 239.8381207378418 151.24610404224308 232.42554251446006L379.25393977203714 100.7853729067786Z " transform="rotate(82.5, 400, 400)" opacity="0.50"></path><path d="M381.1399327628427 127.9866790607611C392.8105518113343 121.24985759320904 407.1894787062438 121.24985759320904 418.8600977547354 127.98856506901069L626.1399484181845 247.66144653053925C637.8105674666762 254.39826799809128 645.000030914131 266.8515804701647 645.000030914131 280.32710941351843V519.6728723365757C645.000030914131 533.1484012799293 637.8105674666762 545.6017137520028 626.1399484181845 552.3404212278044L418.8600977547354 672.0133026893329C407.1894787062438 678.7501241568849 392.8105518113343 678.7501241568849 381.1399327628427 672.0114166810833L173.86008209939354 552.3385352195548C162.18946305090196 545.6017137520028 154.99999960344718 533.1484012799293 154.99999960344718 519.6728723365757V280.32710941351843C154.99999960344718 266.8515804701647 162.18946305090196 254.39826799809128 173.86008209939354 247.65956052228967L381.1399327628427 127.9866790607611Z " transform="rotate(75, 400, 400)" opacity="0.55"></path><path d="M383.02592575364827 155.18801573232173C393.5294828972907 149.12487641152487 406.4705171027093 149.12487641152487 416.97407424635173 155.18971313974635L603.525939843456 262.89530645512207C614.0294969870984 268.9584457759189 620.5000140898078 280.16642700078495 620.5000140898078 292.29440304980335V507.7055896805547C620.5000140898078 519.8335657295731 614.0294969870984 531.0415469544391 603.525939843456 537.1063836826606L416.97407424635173 644.8119769980362C406.4705171027093 650.8751163188331 393.5294828972907 650.8751163188331 383.02592575364827 644.8102795906117L196.47406015654406 537.104686275236C185.9705030129016 531.0415469544391 179.49998591019227 519.8335657295731 179.49998591019227 507.7055896805547V292.29440304980335C179.49998591019227 280.16642700078495 185.9705030129016 268.9584457759189 196.47406015654406 262.8936090476974L383.02592575364827 155.18801573232173Z " transform="rotate(67.5, 400, 400)" opacity="0.60"></path><path d="M384.9119340032429 182.3893524038823C394.2484292420362 176.99989522984066 405.7515707579638 176.99989522984066 415.0880659967571 182.390861210482L580.9119465275164 278.1291663797048C590.2484417663097 283.51862355374647 596.0000125242735 293.48127353140524 596.0000125242735 304.2616966860882V495.7383070245339C596.0000125242735 506.51873017921685 590.2484417663097 516.4813801568756 580.9119465275164 521.8723461375168L415.0880659967571 617.6106513067398C405.7515707579638 623.0001084807814 394.2484292420362 623.0001084807814 384.9119340032429 617.60914250014L219.08805347248358 521.8708373309173C209.75155823369028 516.4813801568756 203.99998747572647 506.51873017921685 203.99998747572647 495.7383070245339V304.2616966860882C203.99998747572647 293.48127353140524 209.75155823369028 283.51862355374647 219.08805347248358 278.1276575731052L384.9119340032429 182.3893524038823Z " transform="rotate(60, 400, 400)" opacity="0.65"></path><path d="M386.7979422528375 209.59068907544292C394.96737558678166 204.87491404815648 405.03262441321834 204.87491404815648 413.2020577471625 209.59200928121766L558.2979532115769 293.3630263042876C566.467386545521 298.078801331574 571.5000109587393 306.79612006202547 571.5000109587393 316.2289903223731V483.77102436851305C571.5000109587393 493.20389462886067 566.467386545521 501.9212133593121 558.2979532115769 506.63830859237316L413.2020577471625 590.4093256154431C405.03262441321834 595.1251006427296 394.96737558678166 595.1251006427296 386.7979422528375 590.4080054096685L241.70204678842316 506.63698838659843C233.53261345447902 501.9212133593121 228.49998904126068 493.20389462886067 228.49998904126068 483.77102436851305V316.2289903223731C228.49998904126068 306.79612006202547 233.53261345447902 298.078801331574 241.70204678842316 293.36170609851297L386.7979422528375 209.59068907544292Z " transform="rotate(52.5, 400, 400)" opacity="0.70"></path><path d="M388.68395050243214 236.7920104882145C395.6863219315271 232.74991760768324 404.3136780684729 232.74991760768324 411.31604949756786 236.79314209316425L535.6839598956374 308.59687097008134C542.6863313247322 312.6389638506126 547.0000093932051 320.11095133385663 547.0000093932051 328.1962686998689V471.8037264537031C547.0000093932051 479.8890438197154 542.6863313247322 487.3610313029594 535.6839598956374 491.4042557884404L411.31604949756786 563.2079846653576C404.3136780684729 567.2500775458888 395.6863219315271 567.2500775458888 388.68395050243214 563.2068530604079L264.3160401043627 491.40312418349066C257.3136686752677 487.3610313029594 252.99999060679488 479.8890438197154 252.99999060679488 471.8037264537031V328.1962686998689C252.99999060679488 320.11095133385663 257.3136686752677 312.6389638506126 264.3160401043627 308.59573936513164L388.68395050243214 236.7920104882145Z " transform="rotate(45, 400, 400)" opacity="0.75"></path><path d="M390.5699587520268 263.9933471597751C396.40526827627264 260.62493642599907 403.59473172372736 260.62493642599907 409.4300412479732 263.9942901638999L513.0699665796977 323.83073089466416C518.9052761039436 327.1991416284402 522.500007827671 333.42579786447686 522.500007827671 340.16356233615375V459.83644379768236C522.500007827671 466.5742082693592 518.9052761039436 472.8008645053959 513.0699665796977 476.17021824329674L409.4300412479732 536.006658974061C403.59473172372736 539.3750697078369 396.40526827627264 539.3750697078369 390.5699587520268 536.0057159699362L286.93003342030227 476.16927523917195C281.09472389605645 472.8008645053959 277.49999217232903 466.5742082693592 277.49999217232903 459.83644379768236V340.16356233615375C277.49999217232903 333.42579786447686 281.09472389605645 327.1991416284402 286.93003342030227 323.82978789053936L390.5699587520268 263.9933471597751Z " transform="rotate(37.5, 400, 400)" opacity="0.80"></path><path d="M392.45596700162145 291.1946609431521C397.1242146210181 288.49993235613124 402.8757853789819 288.49993235613124 407.54403299837855 291.1954153464519L490.4559732637582 339.0645679310634C495.12422088315486 341.75929651808417 498.00000626213676 346.74062150691356 498.00000626213676 352.1308330842551V447.8691382534779C498.00000626213676 453.25934983081936 495.12422088315486 458.24067481964875 490.4559732637582 460.93615780996936L407.54403299837855 508.80531039458083C402.8757853789819 511.5000389816016 397.1242146210181 511.5000389816016 392.45596700162145 508.80455599128095L309.5440267362418 460.9354034066696C304.87577911684514 458.24067481964875 301.99999373786324 453.25934983081936 301.99999373786324 447.8691382534779V352.1308330842551C301.99999373786324 346.74062150691356 304.87577911684514 341.75929651808417 309.5440267362418 339.0638135277635L392.45596700162145 291.1946609431521Z " transform="rotate(30, 400, 400)" opacity="0.85"></path><path d="M394.34197525121607 318.3960128735018C397.84316096576356 316.3749664332362 402.15683903423644 316.3749664332362 405.65802474878393 318.3965786759767L467.8419799478187 354.2984431144352C471.3431656623661 356.31948955470085 473.50000469660256 360.05548329632285 473.50000469660256 364.098141979329V435.9018708562461C473.50000469660256 439.94452953925224 471.3431656623661 443.68052328087424 467.8419799478187 445.70213552361474L405.65802474878393 481.6039999620733C402.15683903423644 483.6250464023389 397.84316096576356 483.6250464023389 394.34197525121607 481.60343415959846L332.1580200521813 445.7015697211399C328.6568343376339 443.68052328087424 326.49999530339744 439.94452953925224 326.49999530339744 435.9018708562461V364.098141979329C326.49999530339744 360.05548329632285 328.6568343376339 356.31948955470085 332.1580200521813 354.29787731196035L394.34197525121607 318.3960128735018Z " transform="rotate(22.5, 400, 400)" opacity="0.90"></path><path d="M396.22798350081075 345.5973342862733C398.562107310509 344.2499699927629 401.437892689491 344.2499699927629 403.77201649918925 345.5977114879232L445.2279866318791 369.53228778022896C447.56211044157743 370.87965207373935 449.0000031310684 373.370314568154 449.0000031310684 376.0654203568248V423.9345729414362C449.0000031310684 426.62967873010695 447.56211044157743 429.12034122452167 445.2279866318791 430.46808271968195L403.77201649918925 454.4026590119877C401.437892689491 455.7500233054981 398.562107310509 455.7500233054981 396.22798350081075 454.40228181033774L354.7720133681209 430.46770551803206C352.43788955842257 429.12034122452167 350.99999686893165 426.62967873010695 350.99999686893165 423.9345729414362V376.0654203568248C350.99999686893165 373.370314568154 352.43788955842257 370.87965207373935 354.7720133681209 369.531910578579L396.22798350081075 345.5973342862733Z " transform="rotate(15, 400, 400)" opacity="0.95"></path><path d="M398.1139917504054 372.7986709578339C399.28105365525454 372.1249888110787 400.71894634474546 372.1249888110787 401.8860082495946 372.7988595586589L422.6139933159395 384.7661477048117C423.78105522078874 385.43982985156697 424.5000015655342 386.6851610987743 424.5000015655342 388.03271399310967V411.96729028541534C424.5000015655342 413.3148431797507 423.78105522078874 414.5601744269581 422.6139933159395 415.2340451745382L401.8860082495946 427.2013333206911C400.71894634474546 427.8750154674463 399.28105365525454 427.8750154674463 398.1139917504054 427.20114471986614L377.3860066840605 415.2338565737133C376.2189447792113 414.5601744269581 375.4999984344658 413.3148431797507 375.4999984344658 411.96729028541534V388.03271399310967C375.4999984344658 386.6851610987743 376.2189447792113 385.43982985156697 377.3860066840605 384.7659591039868L398.1139917504054 372.7986709578339Z " transform="rotate(7.5, 400, 400)" opacity="1.00"></path></g></svg>